<svg width="36" height="51" viewBox="0 0 36 51" fill="none" xmlns="http://www.w3.org/2000/svg">
<g filter="url(#filter0_d_81885_1290)">
<path fill-rule="evenodd" clip-rule="evenodd" d="M29.1007 23.346C30.6887 20.9337 31.6216 17.9899 31.6216 14.8123C31.6216 6.63171 25.4383 0 17.8108 0C10.1833 0 4 6.63171 4 14.8123C4 17.4291 4.63264 19.8873 5.74283 22.0207L5.71637 22.0205L17.8104 43L29.1007 23.346Z" fill="url(#paint0_linear_81885_1290)"/>
</g>
<ellipse cx="17.764" cy="14.1536" rx="8.83919" ry="9.43574" fill="white"/>
<path d="M14.6063 10.8005C14.6063 10.6888 14.6478 10.5816 14.7218 10.5027C14.7958 10.4237 14.8962 10.3793 15.0009 10.3793H16.1847C16.2893 10.3793 16.3897 10.4237 16.4637 10.5027C16.5377 10.5816 16.5793 10.6888 16.5793 10.8005C16.5793 10.9122 16.5377 11.0194 16.4637 11.0984C16.3897 11.1774 16.2893 11.2217 16.1847 11.2217V11.643H19.452L19.7567 10.6674C19.7828 10.5836 19.833 10.5106 19.9002 10.4589C19.9673 10.4072 20.048 10.3793 20.1307 10.3793H20.92C21.0246 10.3793 21.125 10.4237 21.199 10.5027C21.273 10.5816 21.3146 10.6888 21.3146 10.8005C21.3146 10.9122 21.273 11.0194 21.199 11.0984C21.125 11.1774 21.0246 11.2217 20.92 11.2217H20.4149L20.1694 12.0095L20.8063 13.0963C21.3551 12.8546 21.969 12.8419 22.5261 13.0607C23.0833 13.2794 23.5432 13.7136 23.8146 14.2772C24.0861 14.8408 24.1493 15.4927 23.9917 16.1037C23.8341 16.7147 23.4673 17.2402 22.9638 17.5761C22.4604 17.9119 21.8572 18.0337 21.2736 17.9171C20.6901 17.8006 20.1688 17.4543 19.8132 16.9469C19.4576 16.4394 19.2935 15.8079 19.3535 15.1774C19.4134 14.5469 19.6931 13.9635 20.1371 13.5428L19.7361 12.8587L18.0977 15.6574C18.0623 15.718 18.0129 15.7679 17.9544 15.8026C17.8959 15.8372 17.83 15.8554 17.7631 15.8554H16.1523C16.0705 16.372 15.8403 16.8487 15.4935 17.2195C15.1468 17.5903 14.7006 17.8369 14.2168 17.9252C13.733 18.0135 13.2355 17.9391 12.793 17.7123C12.3506 17.4855 11.9851 17.1176 11.7471 16.6593C11.5091 16.2011 11.4105 15.6752 11.4647 15.1545C11.519 14.6338 11.7235 14.1439 12.05 13.7527C12.3765 13.3615 12.8088 13.0882 13.2871 12.9708C13.7654 12.8533 14.2661 12.8975 14.7199 13.0971L15.3955 11.9429V11.2217H15.0009C14.8962 11.2217 14.7958 11.1774 14.7218 11.0984C14.6478 11.0194 14.6063 10.9122 14.6063 10.8005ZM15.7901 12.8587L15.3892 13.5445C15.7838 13.9185 16.06 14.4324 16.1523 15.0129H17.0512L15.7901 12.8587ZM17.7631 14.6397L19.0243 12.4855H16.5019L17.7631 14.6397ZM15.3457 15.0129C15.2785 14.7358 15.1462 14.4815 14.9614 14.274L14.5289 15.0129H15.3457ZM14.2929 13.8267C13.9919 13.7252 13.6692 13.7224 13.3666 13.8187C13.0641 13.915 12.7955 14.106 12.5956 14.3669C12.3958 14.6278 12.2738 14.9467 12.2455 15.2824C12.2172 15.6181 12.2839 15.9551 12.4369 16.2499C12.5899 16.5448 12.8222 16.7838 13.1038 16.9362C13.3854 17.0887 13.7034 17.1474 14.0166 17.1049C14.3298 17.0625 14.6239 16.9207 14.8608 16.6979C15.0978 16.4752 15.2667 16.1817 15.3457 15.8554H13.817C13.7466 15.8554 13.6774 15.8352 13.6168 15.7971C13.5561 15.7589 13.506 15.7041 13.4719 15.6383C13.4378 15.5726 13.4207 15.4982 13.4226 15.4231C13.4244 15.3479 13.4451 15.2746 13.4824 15.2109L14.2929 13.8267ZM20.5648 14.2732C20.3003 14.5706 20.1464 14.9608 20.1321 15.3706C20.1178 15.7804 20.244 16.1817 20.487 16.4994C20.7301 16.817 21.0733 17.029 21.4523 17.0959C21.8314 17.1627 22.2202 17.0796 22.546 16.8622C22.8718 16.6449 23.1121 16.3082 23.222 15.9152C23.3318 15.5222 23.3036 15.0999 23.1427 14.7275C22.9817 14.3552 22.6991 14.0582 22.3477 13.8924C21.9964 13.7265 21.6004 13.7032 21.2341 13.8267L22.0438 15.2109C22.0713 15.2578 22.0898 15.31 22.0984 15.3646C22.1069 15.4191 22.1053 15.4749 22.0937 15.5289C22.082 15.5828 22.0605 15.6337 22.0305 15.6787C22.0004 15.7238 21.9623 15.762 21.9183 15.7913C21.8744 15.8207 21.8255 15.8405 21.7743 15.8496C21.7232 15.8587 21.6709 15.857 21.6204 15.8446C21.57 15.8321 21.5222 15.8092 21.4801 15.7771C21.4379 15.745 21.402 15.7043 21.3745 15.6574L20.5648 14.2732Z" fill="#0B1A3F"/>
<defs>
<filter id="filter0_d_81885_1290" x="0" y="0" width="35.6216" height="51" filterUnits="userSpaceOnUse" color-interpolation-filters="sRGB">
<feFlood flood-opacity="0" result="BackgroundImageFix"/>
<feColorMatrix in="SourceAlpha" type="matrix" values="0 0 0 0 0 0 0 0 0 0 0 0 0 0 0 0 0 0 127 0" result="hardAlpha"/>
<feOffset dy="4"/>
<feGaussianBlur stdDeviation="2"/>
<feComposite in2="hardAlpha" operator="out"/>
<feColorMatrix type="matrix" values="0 0 0 0 0 0 0 0 0 0 0 0 0 0 0 0 0 0 0.25 0"/>
<feBlend mode="normal" in2="BackgroundImageFix" result="effect1_dropShadow_81885_1290"/>
<feBlend mode="normal" in="SourceGraphic" in2="effect1_dropShadow_81885_1290" result="shape"/>
</filter>
<linearGradient id="paint0_linear_81885_1290" x1="17.8108" y1="0" x2="17.8108" y2="43" gradientUnits="userSpaceOnUse">
<stop stop-color="#EB7802"/>
<stop offset="1" stop-color="#DA421D"/>
</linearGradient>
</defs>
</svg>
